<svg width="40" height="40" fill="none" xmlns="http://www.w3.org/2000/svg" viewBox="0 0 40 40">
  <path d="M13 10h26" stroke="url(#paint0_linear)" stroke-width="4" stroke-miterlimit="10"/>
  <path d="M13 20h26" stroke="url(#paint1_linear)" stroke-width="4" stroke-miterlimit="10"/>
  <path d="M13 30h26" stroke="url(#paint2_linear)" stroke-width="4" stroke-miterlimit="10"/>
  <path d="M4 13a3 3 0 100-6 3 3 0 000 6z" fill="url(#paint3_linear)"/>
  <path d="M4 23a3 3 0 100-6 3 3 0 000 6z" fill="url(#paint4_linear)"/>
  <path d="M4 33a3 3 0 100-6 3 3 0 000 6z" fill="url(#paint5_linear)"/>
  <defs>
    <linearGradient id="paint0_linear" x1="13.062" y1="10.27" x2="39" y2="10.45" gradientUnits="userSpaceOnUse">
      <stop stop-color="#fff" stop-opacity=".52"/>
      <stop offset="1" stop-color="#fff" stop-opacity="0"/>
    </linearGradient>
    <linearGradient id="paint1_linear" x1="13.062" y1="20.27" x2="39" y2="20.45" gradientUnits="userSpaceOnUse">
      <stop stop-color="#fff" stop-opacity=".52"/>
      <stop offset="1" stop-color="#fff" stop-opacity="0"/>
    </linearGradient>
    <linearGradient id="paint2_linear" x1="13.062" y1="30.27" x2="39" y2="30.45" gradientUnits="userSpaceOnUse">
      <stop stop-color="#fff" stop-opacity=".52"/>
      <stop offset="1" stop-color="#fff" stop-opacity="0"/>
    </linearGradient>
    <linearGradient id="paint3_linear" x1="1" y1="9.995" x2="6.991" y2="9.995" gradientUnits="userSpaceOnUse">
      <stop stop-color="#fff"/>
      <stop offset="1" stop-color="#fff" stop-opacity=".7"/>
    </linearGradient>
    <linearGradient id="paint4_linear" x1="1" y1="20.002" x2="6.991" y2="20.002" gradientUnits="userSpaceOnUse">
      <stop stop-color="#fff"/>
      <stop offset="1" stop-color="#fff" stop-opacity=".7"/>
    </linearGradient>
    <linearGradient id="paint5_linear" x1="1" y1="30" x2="6.991" y2="30" gradientUnits="userSpaceOnUse">
      <stop stop-color="#fff"/>
      <stop offset="1" stop-color="#fff" stop-opacity=".7"/>
    </linearGradient>
  </defs>
</svg>
