<svg width="40" height="40" fill="none" xmlns="http://www.w3.org/2000/svg" viewBox="0 0 40 40">
  <g clip-path="url(#clip0)">
    <path opacity=".8" d="M26.4 32.1H9.5c-.8 0-1.5-.7-1.5-1.5V5.5C8 4.7 8.7 4 9.5 4h16.9c.8 0 1.5.7 1.5 1.5v25.2c-.1.8-.7 1.4-1.5 1.4z" fill="url(#paint0_linear)"/>
    <path opacity=".85" d="M31.5 8.5H14.2c-.7 0-1.3.6-1.3 1.3v25.6c0 .7.6 1.3 1.3 1.3h17.3c.7 0 1.3-.6 1.3-1.3V9.8c0-.7-.6-1.3-1.3-1.3zM30.1 28H15.6v-3.4H30V28h.1zm0-10.6H15.6V14H30v3.4h.1z" fill="url(#paint1_linear)"/>
    <path d="M12.9 32.1v3.3c0 .7.6 1.3 1.3 1.3h17.3c.7 0 1.3-.6 1.3-1.3v-3.3H12.9z" fill="url(#paint2_linear)"/>
    <path d="M30 19.3H15.6v3.4H30v-3.4z" fill="url(#paint3_linear)"/>
  </g>
  <defs>
    <linearGradient id="paint0_linear" x1="5.031" y1="13.368" x2="30.811" y2="22.751" gradientUnits="userSpaceOnUse">
      <stop stop-color="#fff" stop-opacity=".6"/>
      <stop offset="1" stop-color="#fff" stop-opacity="0"/>
    </linearGradient>
    <linearGradient id="paint1_linear" x1="20.165" y1="7.468" x2="25.502" y2="37.733" gradientUnits="userSpaceOnUse">
      <stop stop-color="#fff"/>
      <stop offset="1" stop-color="#fff" stop-opacity=".7"/>
    </linearGradient>
    <linearGradient id="paint2_linear" x1="12.912" y1="34.389" x2="32.754" y2="34.389" gradientUnits="userSpaceOnUse">
      <stop stop-color="#fff"/>
      <stop offset="1" stop-color="#fff" stop-opacity=".6"/>
    </linearGradient>
    <linearGradient id="paint3_linear" x1="15.608" y1="21.034" x2="30.058" y2="21.034" gradientUnits="userSpaceOnUse">
      <stop stop-color="#fff"/>
      <stop offset=".894" stop-color="#fff" stop-opacity=".821"/>
      <stop offset=".999" stop-color="#fff" stop-opacity=".8"/>
    </linearGradient>
    <clipPath id="clip0">
      <path fill="#fff" transform="translate(8 4)" d="M0 0h24.8v32.7H0z"/>
    </clipPath>
  </defs>
</svg>
