<svg width="40" height="40" fill="none" xmlns="http://www.w3.org/2000/svg" viewBox="0 0 40 40">
  <g clip-path="url(#clip0)">
    <path d="M18.32 25.64c6.252 0 11.32-5.068 11.32-11.32C29.64 8.068 24.572 3 18.32 3 12.068 3 7 8.068 7 14.32c0 6.252 5.068 11.32 11.32 11.32z" fill="url(#paint0_linear)"/>
    <path d="M18.67 28.5v5.41" stroke="url(#paint1_linear)" stroke-width="3" stroke-miterlimit="10" stroke-linejoin="round"/>
    <path d="M28.6 4.04l-2.27 2.27c2.05 2.05 3.32 4.88 3.32 8 0 6.25-5.07 11.32-11.32 11.32-3.13 0-5.96-1.27-8-3.32L8.04 24.6c5.68 5.68 14.88 5.68 20.55 0 5.68-5.68 5.68-14.88.01-20.56z" fill="url(#paint2_linear)"/>
    <path d="M24.08 35.38H13.25" stroke="url(#paint3_linear)" stroke-width="3" stroke-miterlimit="10" stroke-linejoin="round"/>
  </g>
  <defs>
    <linearGradient id="paint0_linear" x1="7.68" y1="18.192" x2="28.96" y2="10.447" gradientUnits="userSpaceOnUse">
      <stop stop-color="#fff" stop-opacity=".6"/>
      <stop offset="1" stop-color="#fff" stop-opacity="0"/>
    </linearGradient>
    <linearGradient id="paint1_linear" x1="-nan" y1="-nan" x2="-nan" y2="-nan" gradientUnits="userSpaceOnUse">
      <stop stop-color="#fff"/>
      <stop offset="1" stop-color="#fff" stop-opacity=".7"/>
    </linearGradient>
    <linearGradient id="paint2_linear" x1="8.043" y1="16.447" x2="32.854" y2="16.447" gradientUnits="userSpaceOnUse">
      <stop stop-color="#fff"/>
      <stop offset="1" stop-color="#fff" stop-opacity=".7"/>
    </linearGradient>
    <linearGradient id="paint3_linear" x1="-nan" y1="-nan" x2="-nan" y2="-nan" gradientUnits="userSpaceOnUse">
      <stop stop-color="#fff"/>
      <stop offset="1" stop-color="#fff" stop-opacity=".7"/>
    </linearGradient>
    <clipPath id="clip0">
      <path fill="#fff" transform="translate(7 3)" d="M0 0h25.85v33.88H0z"/>
    </clipPath>
  </defs>
</svg>
