<svg width="40" height="40" fill="none" xmlns="http://www.w3.org/2000/svg" viewBox="0 0 40 40">
  <g clip-path="url(#clip0)">
    <path opacity=".7" d="M22.07 31.62H3.77c-.42 0-.77-.35-.77-.77V4.27c0-.42.35-.77.77-.77h18.3c.43 0 .77.35.77.77v26.58c0 .42-.34.77-.77.77z" fill="url(#paint0_linear)"/>
    <path opacity=".8" d="M26.57 35.9H8.28a.77.77 0 01-.77-.77V8.56c0-.43.35-.77.77-.77h18.3c.43 0 .77.35.77.77v26.58c0 .42-.35.76-.78.76z" fill="url(#paint1_linear)"/>
    <path d="M34.47 14.28l2.31-2.13-3.12-3.39-2.37 2.18 3.18 3.34z" fill="url(#paint2_linear)"/>
    <path d="M29.81 12.29l-10.63 9.8-1.27 4.27 4.4-.88 10.68-9.84-3.18-3.35z" fill="url(#paint3_linear)"/>
  </g>
  <defs>
    <linearGradient id="paint0_linear" x1="-.154" y1="12.801" x2="25.995" y2="22.318" gradientUnits="userSpaceOnUse">
      <stop stop-color="#fff"/>
      <stop offset="1" stop-color="#fff" stop-opacity=".6"/>
    </linearGradient>
    <linearGradient id="paint1_linear" x1="17.424" y1="35.903" x2="17.424" y2="7.784" gradientUnits="userSpaceOnUse">
      <stop stop-color="#fff" stop-opacity=".6"/>
      <stop offset="1" stop-color="#fff" stop-opacity="0"/>
    </linearGradient>
    <linearGradient id="paint2_linear" x1="31.285" y1="11.52" x2="36.784" y2="11.52" gradientUnits="userSpaceOnUse">
      <stop stop-color="#fff"/>
      <stop offset="1" stop-color="#fff" stop-opacity=".7"/>
    </linearGradient>
    <linearGradient id="paint3_linear" x1="28.635" y1="11.864" x2="22.72" y2="28.115" gradientUnits="userSpaceOnUse">
      <stop stop-color="#fff"/>
      <stop offset="1" stop-color="#fff" stop-opacity=".7"/>
    </linearGradient>
    <clipPath id="clip0">
      <path fill="#fff" transform="translate(3 3.5)" d="M0 0h33.78v32.4H0z"/>
    </clipPath>
  </defs>
</svg>
